<svg width="22" height="22" viewBox="0 0 22 22" fill="none" xmlns="http://www.w3.org/2000/svg">
<path d="M10.9996 8.71463C11.9236 8.71463 12.7948 9.07503 13.446 9.7255C14.0972 10.3848 14.458 11.255 14.458 12.1692C14.4492 13.1273 14.062 13.9888 13.4372 14.6129C12.8124 15.237 11.95 15.6237 10.9996 15.6237C10.0756 15.6237 9.21317 15.2634 8.55317 14.6129C7.90197 13.9536 7.54117 13.0922 7.54117 12.1692C7.53237 11.255 7.89317 10.3936 8.54437 9.73429C9.20437 9.07503 10.0756 8.71463 10.9996 8.71463ZM10.9996 10.0332C10.4276 10.0332 9.89077 10.2529 9.47717 10.6661C9.07237 11.0704 8.85237 11.6066 8.86117 12.1604V12.1692C8.86117 12.7406 9.08117 13.2768 9.48597 13.6811C9.89077 14.0855 10.4276 14.3052 10.9996 14.3052C12.1788 14.3052 13.1292 13.3471 13.138 12.1692C13.138 11.5978 12.918 11.0616 12.5132 10.6573C12.1084 10.2529 11.5716 10.0332 10.9996 10.0332ZM15.9364 8.50366C16.3764 8.50366 16.7372 8.86406 16.7372 9.30357C16.7372 9.74308 16.3764 10.0947 15.9364 10.0947C15.4964 10.0947 15.1444 9.74308 15.1444 9.30357C15.1444 8.86406 15.4964 8.50366 15.9364 8.50366Z" fill="white"/>
<path opacity="0.5" d="M15.7871 5.92811L15.6992 5.73473C15.4616 5.23368 15.1888 4.65353 15.0216 4.3195C14.6167 3.52838 13.9216 3.08887 13.068 3.08008H8.92315C8.06955 3.08887 7.38315 3.52838 6.97835 4.3195C6.80235 4.67111 6.50315 5.30401 6.25675 5.82263L6.20395 5.92811C6.17755 5.99844 6.10715 6.0336 6.03675 6.0336C3.91595 6.0336 2.19995 7.75648 2.19995 9.86614V15.0875C2.19995 17.1972 3.91595 18.9201 6.03675 18.9201H15.9632C18.0752 18.9201 19.7999 17.1972 19.7999 15.0875V9.86614C19.7999 7.75648 18.0752 6.0336 15.9632 6.0336C15.884 6.0336 15.8223 5.98964 15.7871 5.92811Z" fill="white"/>
</svg>
