<svg width="22" height="22" viewBox="0 0 22 22" fill="none" xmlns="http://www.w3.org/2000/svg">
<path fill-rule="evenodd" clip-rule="evenodd" d="M12.947 7.49097C12.947 9.81748 11.0432 11.6819 8.66757 11.6819C6.29277 11.6819 4.38811 9.81748 4.38811 7.49097C4.38811 5.16446 6.29277 3.30005 8.66757 3.30005C11.0432 3.30005 12.947 5.16446 12.947 7.49097ZM2.2002 16.4273C2.2002 14.2737 5.17946 13.7349 8.66761 13.7349C12.1747 13.7349 15.135 14.2922 15.135 16.4476C15.135 18.6012 12.1558 19.14 8.66761 19.14C5.16052 19.14 2.2002 18.5827 2.2002 16.4273ZM14.6728 7.56695C14.6728 8.75171 14.3094 9.8572 13.6722 10.7755C13.6059 10.8699 13.6645 10.9973 13.7798 11.0175C13.94 11.0436 14.1045 11.0597 14.2724 11.063C15.9428 11.106 17.4419 10.0528 17.8561 8.46669C18.47 6.1132 16.6687 4.00003 14.374 4.00003C14.1251 4.00003 13.8866 4.02533 13.6541 4.0717C13.6223 4.07845 13.5878 4.09363 13.5706 4.12061C13.5482 4.15519 13.5646 4.19988 13.587 4.22939C14.2767 5.17635 14.6728 6.32907 14.6728 7.56695ZM17.4394 12.7181C18.5622 12.9331 19.3001 13.3707 19.6058 14.0091C19.865 14.5319 19.865 15.139 19.6058 15.6618C19.1382 16.6501 17.6297 16.968 17.0433 17.0498C16.9219 17.0667 16.8246 16.9655 16.8375 16.8458C17.1371 14.1069 14.7546 12.8083 14.1381 12.5098C14.1122 12.4955 14.1062 12.4752 14.1088 12.4617C14.1105 12.4533 14.1217 12.4398 14.1415 12.4373C15.4753 12.412 16.9098 12.5916 17.4394 12.7181Z" fill="white"/>
<path d="M8.66761 13.7349C5.17946 13.7349 2.2002 14.2737 2.2002 16.4273C2.2002 18.5827 5.16052 19.1401 8.66761 19.1401C12.1558 19.1401 15.135 18.6012 15.135 16.4476C15.135 14.2922 12.1747 13.7349 8.66761 13.7349Z" fill="#2D99FF"/>
<path opacity="0.3" d="M8.66716 11.6819C11.0428 11.6819 12.9466 9.81748 12.9466 7.49097C12.9466 5.16446 11.0428 3.30005 8.66716 3.30005C6.29236 3.30005 4.3877 5.16446 4.3877 7.49097C4.3877 9.81748 6.29236 11.6819 8.66716 11.6819Z" fill="#2D99FF"/>
<path opacity="0.3" d="M14.6724 7.56692C14.6724 8.75168 14.309 9.85717 13.6719 10.7755C13.6056 10.8699 13.6641 10.9972 13.7795 11.0175C13.9396 11.0436 14.1041 11.0596 14.272 11.063C15.9425 11.106 17.4416 10.0528 17.8557 8.46666C18.4697 6.11317 16.6683 4 14.3736 4C14.1248 4 13.8863 4.0253 13.6538 4.07168C13.6219 4.07842 13.5875 4.0936 13.5703 4.12058C13.5479 4.15516 13.5642 4.19985 13.5866 4.22936C14.2763 5.17633 14.6724 6.32904 14.6724 7.56692Z" fill="#2D99FF"/>
<path d="M19.6055 14.009C19.2998 13.3707 18.5619 12.933 17.439 12.718C16.9095 12.5915 15.475 12.4119 14.1412 12.4372C14.1214 12.4398 14.1102 12.4532 14.1085 12.4617C14.1059 12.4752 14.1119 12.4954 14.1377 12.5097C14.7543 12.8082 17.1368 14.1068 16.8372 16.8457C16.8242 16.9654 16.9215 17.0666 17.0429 17.0498C17.6293 16.968 19.1379 16.6501 19.6055 15.6618C19.8646 15.139 19.8646 14.5318 19.6055 14.009Z" fill="#2D99FF"/>
</svg>
