<svg width="22" height="22" viewBox="0 0 22 22" fill="none" xmlns="http://www.w3.org/2000/svg">
<path fill-rule="evenodd" clip-rule="evenodd" d="M14.7078 4.47236C14.5422 3.19396 13.4584 2.19995 12.1369 2.19995H9.86361C8.54119 2.19995 7.45826 3.19396 7.29274 4.47236H5.56092C3.7076 4.47236 2.2003 5.97614 2.2003 7.82506V10.1926H2.2002C2.20023 10.1942 2.20026 10.1958 2.2003 10.1973V10.8766C2.2003 10.932 2.2072 10.9864 2.22044 11.0389C2.27384 13.0955 2.36972 15.8213 2.38509 16.1602C2.4476 16.9905 2.76544 17.8295 3.26024 18.4212C3.94874 19.2514 4.7966 19.6221 5.97903 19.6221C7.61312 19.6309 9.41449 19.6309 11.1639 19.6309C12.9204 19.6309 14.6249 19.6309 16.0644 19.6221C17.2301 19.6221 18.1044 19.2418 18.7841 18.4212C19.2789 17.8295 19.5967 16.9817 19.6416 16.1602C19.6511 15.9853 19.6807 14.8074 19.7143 13.4717L19.7143 13.4711L19.7143 13.4707C19.7348 12.6597 19.7566 11.7906 19.7763 11.0525C19.792 10.9959 19.8002 10.9368 19.8002 10.8766V7.82506C19.8002 5.97614 18.2964 4.47236 16.4484 4.47236H14.7078ZM9.86361 3.5206H12.1369C12.7285 3.5206 13.2234 3.92561 13.3713 4.47236H8.62836C8.77627 3.92561 9.27108 3.5206 9.86361 3.5206Z" fill="white"/>
<path opacity="0.4" d="M2.2002 10.1926C2.24422 12.2511 2.36748 15.7719 2.38509 16.1602C2.4476 16.9905 2.76544 17.8295 3.26024 18.4212C3.94874 19.2514 4.7966 19.6221 5.97903 19.6221C7.61311 19.6309 9.41449 19.6309 11.1639 19.6309C12.9204 19.6309 14.6249 19.6309 16.0644 19.6221C17.2301 19.6221 18.1044 19.2417 18.7841 18.4212C19.2789 17.8295 19.5967 16.9817 19.6416 16.1602C19.6592 15.8336 19.7473 12.0116 19.8001 10.1926H2.2002Z" fill="#1A1926"/>
<path d="M10.3398 13.9836V15.1229C10.3398 15.4874 10.6357 15.7832 11.0002 15.7832C11.3647 15.7832 11.6605 15.4874 11.6605 15.1229V13.9836C11.6605 13.6191 11.3647 13.3232 11.0002 13.3232C10.6357 13.3232 10.3398 13.6191 10.3398 13.9836Z" fill="#1A1926"/>
<path d="M12.1368 2.19995C13.4583 2.19995 14.5421 3.19396 14.7077 4.47236H16.4483C18.2963 4.47236 19.8001 5.97614 19.8001 7.82506V10.8766C19.8001 11.0985 19.6883 11.3054 19.5043 11.4278C17.6888 12.6296 15.5335 13.4299 13.2726 13.7425C13.2417 13.7469 13.2118 13.7486 13.1819 13.7486C12.8834 13.7486 12.6166 13.547 12.5418 13.2512C12.3639 12.5504 11.7274 12.06 10.9957 12.06C10.2544 12.06 9.62491 12.5398 9.42945 13.2547C9.34141 13.5743 9.03414 13.7786 8.70133 13.7345C6.45534 13.4211 4.30884 12.6243 2.4969 11.4278C2.31113 11.3063 2.2002 11.0985 2.2002 10.8766V7.82506C2.2002 5.97614 3.7075 4.47236 5.56082 4.47236H7.29264C7.45816 3.19396 8.54109 2.19995 9.86351 2.19995H12.1368ZM12.1368 3.5206H9.86351C9.27098 3.5206 8.77617 3.92561 8.62826 4.47236H13.3712C13.2233 3.92561 12.7284 3.5206 12.1368 3.5206Z" fill="#1A1926"/>
</svg>
