<svg width="20" height="20" viewBox="0 0 20 20" fill="none" xmlns="http://www.w3.org/2000/svg">
<path fill-rule="evenodd" clip-rule="evenodd" d="M16.7218 11.264C17.0079 11.416 17.2287 11.656 17.384 11.896C17.6865 12.392 17.662 13 17.3677 13.536L16.7954 14.496C16.4929 15.008 15.9287 15.328 15.3483 15.328C15.0621 15.328 14.7433 15.248 14.4816 15.088C14.2691 14.952 14.0238 14.904 13.7622 14.904C12.9528 14.904 12.2742 15.568 12.2497 16.36C12.2497 17.28 11.4975 18 10.5573 18H9.44544C8.49707 18 7.7449 17.28 7.7449 16.36C7.72855 15.568 7.04997 14.904 6.24058 14.904C5.97079 14.904 5.72552 14.952 5.52113 15.088C5.2595 15.248 4.93248 15.328 4.65451 15.328C4.06586 15.328 3.50174 15.008 3.19924 14.496L2.63512 13.536C2.33262 13.016 2.31627 12.392 2.61877 11.896C2.74958 11.656 2.99485 11.416 3.27282 11.264C3.50174 11.152 3.6489 10.968 3.78789 10.752C4.19667 10.064 3.9514 9.16 3.25647 8.752C2.44708 8.296 2.18546 7.28 2.65147 6.488L3.19924 5.544C3.67343 4.752 4.68721 4.472 5.50477 4.936C6.21606 5.32 7.13991 5.064 7.55687 4.384C7.68768 4.16 7.76126 3.92 7.7449 3.68C7.72855 3.368 7.81849 3.072 7.97382 2.832C8.27632 2.336 8.82409 2.016 9.42092 2H10.5737C11.1787 2 11.7265 2.336 12.029 2.832C12.1761 3.072 12.2742 3.368 12.2497 3.68C12.2333 3.92 12.3069 4.16 12.4377 4.384C12.8547 5.064 13.7785 5.32 14.498 4.936C15.3074 4.472 16.3293 4.752 16.7954 5.544L17.3431 6.488C17.8173 7.28 17.5557 8.296 16.7381 8.752C16.0432 9.16 15.7979 10.064 16.2149 10.752C16.3457 10.968 16.4929 11.152 16.7218 11.264Z" fill="white"/>
<path d="M10.0099 12.264C8.7263 12.264 7.68799 11.264 7.68799 10.008C7.68799 8.752 8.7263 7.744 10.0099 7.744C11.2935 7.744 12.3072 8.752 12.3072 10.008C12.3072 11.264 11.2935 12.264 10.0099 12.264Z" fill="#1A1926"/>
<path opacity="0.25" d="M17.384 11.896C17.2287 11.656 17.0079 11.416 16.7218 11.264C16.4929 11.152 16.3457 10.968 16.2149 10.752C15.7979 10.064 16.0432 9.16 16.7381 8.752C17.5557 8.296 17.8173 7.28 17.3431 6.488L16.7954 5.544C16.3293 4.752 15.3074 4.472 14.498 4.936C13.7785 5.32 12.8547 5.064 12.4377 4.384C12.3069 4.16 12.2333 3.92 12.2497 3.68C12.2742 3.368 12.1761 3.072 12.029 2.832C11.7265 2.336 11.1787 2 10.5737 2H9.42092C8.82409 2.016 8.27632 2.336 7.97382 2.832C7.81849 3.072 7.72855 3.368 7.7449 3.68C7.76126 3.92 7.68768 4.16 7.55687 4.384C7.13991 5.064 6.21606 5.32 5.50477 4.936C4.68721 4.472 3.67343 4.752 3.19924 5.544L2.65147 6.488C2.18546 7.28 2.44708 8.296 3.25647 8.752C3.9514 9.16 4.19667 10.064 3.78789 10.752C3.6489 10.968 3.50174 11.152 3.27282 11.264C2.99485 11.416 2.74958 11.656 2.61877 11.896C2.31627 12.392 2.33262 13.016 2.63512 13.536L3.19924 14.496C3.50174 15.008 4.06586 15.328 4.65451 15.328C4.93248 15.328 5.2595 15.248 5.52113 15.088C5.72552 14.952 5.97079 14.904 6.24058 14.904C7.04997 14.904 7.72855 15.568 7.7449 16.36C7.7449 17.28 8.49707 18 9.44544 18H10.5573C11.4975 18 12.2497 17.28 12.2497 16.36C12.2742 15.568 12.9528 14.904 13.7622 14.904C14.0238 14.904 14.2691 14.952 14.4816 15.088C14.7433 15.248 15.0621 15.328 15.3483 15.328C15.9287 15.328 16.4929 15.008 16.7954 14.496L17.3677 13.536C17.662 13 17.6865 12.392 17.384 11.896Z" fill="#1A1926"/>
</svg>
